:FULLY-SPECIFIED
:FORCE-ALL-JOINTS-BE-3DOF
:DEGREES
340
root 7.99656 15.9794 -20.6593 9.77166 25.4439 4.95424
lfemur -20.1731 23.3456 -13.1697
ltibia 50.9238 0 0
lfoot -17.0196 11.4212 0
ltoes -11.8574 0 0
rfemur -42.277 -7.34029 7.40707
rtibia 51.9971 0 0
rfoot 1.25176 -12.605 0
rtoes 31.6329 0 0
lowerback 5.46191 -0.630679 -1.93104
upperback 3.47624 -0.887453 -0.754008
thorax 0.57271 -0.461253 0.346307
lowerneck -4.94134 -9.14916 1.75852
upperneck -4.43037 -12.1359 5.95158
head -0.213416 -6.12058 1.43284
lclavicle -2.34069e-14 8.00956e-15 0
lhumerus -48.1301 -43.6157 109.752
lradius 59.3768 0 0
lwrist 16.3424 0 0
lhand 4.8027 10.9694 0
lfingers 7.12502 0 0
lthumb 30.1011 37.709 0
rclavicle -2.34069e-14 8.00956e-15 0
rhumerus -16.6092 13.1884 -67.9805
rradius 76.3443 0 0
rwrist -1.53141 0 0
rhand -32.1459 -27.54 0
rfingers 7.12502 0 0
rthumb -5.38809 -777.031 0
341
root 7.94239 15.9967 -20.5176 9.74461 24.1283 4.60929
lfemur -20.89 23.3592 -13.0941
ltibia 51.7983 0 0
lfoot -16.8364 10.8992 0
ltoes -10.9878 0 0
rfemur -41.7868 -7.29815 8.19004
rtibia 51.6983 0 0
rfoot 0.538187 -12.1668 0
rtoes 31.142 0 0
lowerback 5.45283 -0.578115 -1.77709
upperback 3.4512 -0.812023 -0.687261
thorax 0.55117 -0.42252 0.324913
lowerneck -5.04704 -8.90012 1.77591
upperneck -4.31723 -11.8145 5.84003
head -0.171755 -5.95687 1.39654
lclavicle -2.33572e-14 7.09321e-15 0
lhumerus -47.8986 -42.9204 109.308
lradius 59.3356 0 0
lwrist 16.5054 0 0
lhand 3.98078 10.7351 0
lfingers 7.12502 0 0
lthumb 29.3137 37.5793 0
rclavicle -2.33572e-14 7.09321e-15 0
rhumerus -17.2941 13.1284 -68.8174
rradius 75.9278 0 0
rwrist -1.23324 0 0
rhand -31.3938 -27.329 0
rfingers 7.12502 0 0
rthumb -4.66237 -776.815 0
342
root 7.88821 16.014 -20.3759 9.71757 22.8127 4.26434
lfemur -21.6069 23.3728 -13.0185
ltibia 52.6727 0 0
lfoot -16.6531 10.3771 0
ltoes -10.1182 0 0
rfemur -41.2967 -7.25602 8.97302
rtibia 51.3996 0 0
rfoot -0.175385 -11.7286 0
rtoes 30.6511 0 0
lowerback 5.44375 -0.525551 -1.62315
upperback 3.42617 -0.736593 -0.620514
thorax 0.52963 -0.383786 0.30352
lowerneck -5.15274 -8.65108 1.79329
upperneck -4.20408 -11.4932 5.72847
head -0.130093 -5.79316 1.36023
lclavicle -2.33075e-14 6.17687e-15 0
lhumerus -47.6671 -42.2252 108.863
lradius 59.2944 0 0
lwrist 16.6684 0 0
lhand 3.15885 10.5007 0
lfingers 7.12502 0 0
lthumb 28.5264 37.4497 0
rclavicle -2.33075e-14 6.17687e-15 0
rhumerus -17.9791 13.0683 -69.6543
rradius 75.5113 0 0
rwrist -0.935073 0 0
rhand -30.6418 -27.1181 0
rfingers 7.12502 0 0
rthumb -3.93665 -776.599 0
343
root 7.83403 16.0312 -20.2342 9.69052 21.4971 3.91939
lfemur -22.3238 23.3864 -12.943
ltibia 53.5471 0 0
lfoot -16.4699 9.85506 0
ltoes -9.24868 0 0
rfemur -40.8066 -7.21389 9.75599
rtibia 51.1009 0 0
rfoot -0.888957 -11.2904 0
rtoes 30.1602 0 0
lowerback 5.43467 -0.472987 -1.4692
upperback 3.40114 -0.661163 -0.553768
thorax 0.50809 -0.345053 0.282127
lowerneck -5.25844 -8.40204 1.81068
upperneck -4.09093 -11.1719 5.61691
head -0.0884323 -5.62945 1.32392
lclavicle -2.32578e-14 5.26052e-15 0
lhumerus -47.4356 -41.53 108.419
lradius 59.2532 0 0
lwrist 16.8313 0 0
lhand 2.33692 10.2663 0
lfingers 7.12502 0 0
lthumb 27.739 37.32 0
rclavicle -2.32578e-14 5.26052e-15 0
rhumerus -18.6641 13.0082 -70.4912
rradius 75.0949 0 0
rwrist -0.636903 0 0
rhand -29.8898 -26.9071 0
rfingers 7.12502 0 0
rthumb -3.21093 -776.382 0
344
root 7.77986 16.0485 -20.0925 9.66347 20.1815 3.57445
lfemur -23.0408 23.4 -12.8674
ltibia 54.4216 0 0
lfoot -16.2867 9.33302 0
ltoes -8.3791 0 0
rfemur -40.3164 -7.17175 10.539
rtibia 50.8021 0 0
rfoot -1.60253 -10.8522 0
rtoes 29.6693 0 0
lowerback 5.42558 -0.420424 -1.31525
upperback 3.3761 -0.585734 -0.487021
thorax 0.486551 -0.30632 0.260733
lowerneck -5.36414 -8.153 1.82806
upperneck -3.97778 -10.8506 5.50536
head -0.0467711 -5.46574 1.28762
lclavicle -2.32081e-14 4.34417e-15 0
lhumerus -47.2041 -40.8347 107.974
lradius 59.212 0 0
lwrist 16.9943 0 0
lhand 1.515 10.032 0
lfingers 7.12502 0 0
lthumb 26.9516 37.1904 0
rclavicle -2.32081e-14 4.34417e-15 0
rhumerus -19.3491 12.9481 -71.3281
rradius 74.6784 0 0
rwrist -0.338734 0 0
rhand -29.1377 -26.6961 0
rfingers 7.12502 0 0
rthumb -2.48521 -776.166 0
345
root 7.72568 16.0658 -19.9508 9.63642 18.8659 3.2295
lfemur -23.7577 23.4136 -12.7919
ltibia 55.296 0 0
lfoot -16.1035 8.81097 0
ltoes -7.50953 0 0
rfemur -39.8263 -7.12962 11.3219
rtibia 50.5034 0 0
rfoot -2.3161 -10.414 0
rtoes 29.1784 0 0
lowerback 5.4165 -0.36786 -1.1613
upperback 3.35107 -0.510304 -0.420275
thorax 0.465011 -0.267587 0.23934
lowerneck -5.46984 -7.90396 1.84545
upperneck -3.86464 -10.5292 5.3938
head -0.00510988 -5.30203 1.25131
lclavicle -2.31584e-14 3.42782e-15 0
lhumerus -46.9726 -40.1395 107.53
lradius 59.1708 0 0
lwrist 17.1573 0 0
lhand 0.693071 9.7976 0
lfingers 7.12502 0 0
lthumb 26.1642 37.0607 0
rclavicle -2.31584e-14 3.42782e-15 0
rhumerus -20.034 12.8881 -72.1649
rradius 74.262 0 0
rwrist -0.0405639 0 0
rhand -28.3857 -26.4852 0
rfingers 7.12502 0 0
rthumb -1.75949 -775.949 0
346
root 7.67151 16.083 -19.8091 9.60937 17.5503 2.88455
lfemur -24.4746 23.4272 -12.7163
ltibia 56.1704 0 0
lfoot -15.9203 8.28893 0
ltoes -6.63996 0 0
rfemur -39.3361 -7.08748 12.1049
rtibia 50.2046 0 0
rfoot -3.02967 -9.97584 0
rtoes 28.6875 0 0
lowerback 5.40742 -0.315296 -1.00735
upperback 3.32604 -0.434874 -0.353528
thorax 0.443471 -0.228854 0.217946
lowerneck -5.57554 -7.65492 1.86284
upperneck -3.75149 -10.2079 5.28224
head 0.0365513 -5.13832 1.215
lclavicle -2.31087e-14 2.51147e-15 0
lhumerus -46.7411 -39.4442 107.085
lradius 59.1296 0 0
lwrist 17.3202 0 0
lhand -0.128856 9.56323 0
lfingers 7.12502 0 0
lthumb 25.3768 36.931 0
rclavicle -2.31087e-14 2.51147e-15 0
rhumerus -20.719 12.828 -73.0018
rradius 73.8455 0 0
rwrist 0.257606 0 0
rhand -27.6336 -26.2742 0
rfingers 7.12502 0 0
rthumb -1.03377 -775.733 0
347
root 7.61733 16.1003 -19.6674 9.58232 16.2347 2.5396
lfemur -25.1915 23.4408 -12.6407
ltibia 57.0449 0 0
lfoot -15.7371 7.76688 0
ltoes -5.77038 0 0
rfemur -38.846 -7.04535 12.8879
rtibia 49.9059 0 0
rfoot -3.74325 -9.53766 0
rtoes 28.1966 0 0
lowerback 5.39834 -0.262732 -0.853402
upperback 3.301 -0.359444 -0.286781
thorax 0.421931 -0.19012 0.196553
lowerneck -5.68124 -7.40588 1.88022
upperneck -3.63834 -9.88659 5.17069
head 0.0782125 -4.97462 1.17869
lclavicle -2.3059e-14 1.59512e-15 0
lhumerus -46.5095 -38.749 106.641
lradius 59.0884 0 0
lwrist 17.4832 0 0
lhand -0.950783 9.32886 0
lfingers 7.12502 0 0
lthumb 24.5895 36.8014 0
rclavicle -2.3059e-14 1.59512e-15 0
rhumerus -21.404 12.7679 -73.8387
rradius 73.429 0 0
rwrist 0.555776 0 0
rhand -26.8816 -26.0633 0
rfingers 7.12502 0 0
rthumb -0.308049 -775.517 0
348
root 7.56316 16.1176 -19.5257 9.55527 14.9191 2.19466
lfemur -25.9084 23.4544 -12.5652
ltibia 57.9193 0 0
lfoot -15.5539 7.24484 0
ltoes -4.90081 0 0
rfemur -38.3559 -7.00322 13.6709
rtibia 49.6072 0 0
rfoot -4.45682 -9.09947 0
rtoes 27.7057 0 0
lowerback 5.38925 -0.210169 -0.699453
upperback 3.27597 -0.284015 -0.220035
thorax 0.400391 -0.151387 0.175159
lowerneck -5.78694 -7.15684 1.89761
upperneck -3.52519 -9.56527 5.05913
head 0.119874 -4.81091 1.14239
lclavicle -2.30093e-14 6.78773e-16 0
lhumerus -46.278 -38.0537 106.197
lradius 59.0472 0 0
lwrist 17.6462 0 0
lhand -1.77271 9.09449 0
lfingers 7.12502 0 0
lthumb 23.8021 36.6717 0
rclavicle -2.30093e-14 6.78773e-16 0
rhumerus -22.0889 12.7078 -74.6756
rradius 73.0126 0 0
rwrist 0.853945 0 0
rhand -26.1296 -25.8523 0
rfingers 7.12502 0 0
rthumb 0.417671 -775.3 0
